<svg width="1280" height="720" viewBox="0 0 1280 720" fill="none" xmlns="http://www.w3.org/2000/svg">
<g clip-path="url(#clip0)">
<rect width="1280" height="720" fill="#F7B6B6" fill-opacity="0.6"/>
<circle cx="205" cy="702" r="261" fill="#DC8282" fill-opacity="0.8"/>
<circle cx="795.5" cy="15.5" r="117.5" fill="#DC8282" fill-opacity="0.8"/>
<circle cx="1024.5" cy="460.5" r="212.5" fill="#DC8282" fill-opacity="0.8"/>
<g clip-path="url(#clip1)">
<path d="M911.122 324.837L913.835 303.101C914.8 295.376 918.795 288.35 924.942 283.57C931.088 278.789 938.884 276.644 946.612 277.608C954.341 278.572 961.37 282.565 966.154 288.709C970.937 294.852 973.082 302.644 972.118 310.368L969.405 332.105C969.274 333.142 968.737 334.085 967.912 334.727C967.087 335.369 966.04 335.657 965.002 335.529L914.548 329.238C913.511 329.107 912.567 328.57 911.925 327.745C911.283 326.92 910.994 325.874 911.122 324.837Z" fill="#2F2E41"/>
<path d="M935.29 331.322C947.181 331.322 956.821 321.687 956.821 309.802C956.821 297.917 947.181 288.282 935.29 288.282C923.399 288.282 913.759 297.917 913.759 309.802C913.759 321.687 923.399 331.322 935.29 331.322Z" fill="#FFB8B8"/>
<path d="M906.724 303.98C907.494 297.872 910.656 292.319 915.516 288.539C920.377 284.758 926.54 283.059 932.652 283.814L937.002 284.357C943.113 285.126 948.669 288.286 952.451 293.144C956.234 298.003 957.934 304.162 957.178 310.271L957.124 310.706L947.932 309.56L945.892 300.395L944.17 309.091L939.419 308.499L938.39 303.874L937.521 308.262L906.67 304.415L906.724 303.98Z" fill="#2F2E41"/>
<path d="M829.982 386.568C830.64 387.859 831.574 388.99 832.717 389.882C833.86 390.774 835.184 391.405 836.597 391.729C838.01 392.054 839.478 392.065 840.895 391.762C842.313 391.459 843.647 390.849 844.804 389.974L864.36 401.424L874.22 391.243L846.376 375.461C844.777 373.617 842.558 372.423 840.137 372.105C837.717 371.787 835.264 372.368 833.243 373.737C831.223 375.106 829.775 377.168 829.174 379.533C828.573 381.898 828.86 384.401 829.982 386.568Z" fill="#FFB8B8"/>
<path d="M894.077 407.142C879.652 407.142 854.268 400.688 852.863 400.327L852.419 400.214L856.414 379.997L895.185 387.651L916.248 358.005L940.43 355.548L939.755 356.436C939.44 356.85 908.268 397.863 903.417 404.744C902.193 406.479 898.696 407.142 894.077 407.142Z" fill="#3F3D56"/>
<path d="M897.944 483.02L897.367 482.745C897.244 482.686 884.988 476.728 878.64 465.096C872.323 453.52 901.897 404.411 903.966 401.004L903.996 385.409L914.635 356.699L928.203 349.035L916.554 376.202L897.944 483.02Z" fill="#3F3D56"/>
<path d="M884.351 650.64L871.384 650.639L865.215 600.648L884.353 600.649L884.351 650.64Z" fill="#FFB8B8"/>
<path d="M887.658 663.203L845.846 663.201V662.673C845.847 658.359 847.561 654.221 850.613 651.171C853.665 648.121 857.805 646.407 862.121 646.407H862.122L887.659 646.408L887.658 663.203Z" fill="#2F2E41"/>
<path d="M1023.64 639.282L1011.31 643.317L989.876 597.731L1008.06 591.776L1023.64 639.282Z" fill="#FFB8B8"/>
<path d="M1030.69 650.191L990.958 663.203L990.794 662.7C989.45 658.601 989.791 654.136 991.74 650.287C993.69 646.439 997.09 643.522 1001.19 642.178L1001.19 642.178L1025.46 634.231L1030.69 650.191Z" fill="#2F2E41"/>
<path d="M998.528 631.108L961.562 569.426L930.357 503.527L902.276 561.738L891.12 637.132L851.999 637.675L852.153 637.064L912.021 399.305L958.909 406.306L956.774 437.24L958.045 439.046C968.637 454.085 979.589 469.634 973.307 486.396L991.114 539.24L1030.53 627.231L998.528 631.108Z" fill="#2F2E41"/>
<path d="M914.163 450.834C907.369 450.834 899.618 443.081 903.639 429.843L903.379 429.655L913.038 387.002C904.608 374.953 915.722 365.009 916.763 364.12L922.068 354.576L945.475 339.74L957.318 438.09L957.143 438.257C948.589 446.437 919.863 450.834 914.163 450.834Z" fill="#F87171"/>
<path d="M962.099 473.027C961.169 473.041 960.241 472.943 959.334 472.735C958.424 472.506 956.95 471.348 954.673 463.937C945.62 434.475 934.93 345.828 942.696 337.153L942.874 336.955L955.625 339.078C956.685 338.297 962.246 334.416 967.379 335.091C968.436 335.224 969.454 335.572 970.37 336.113C971.287 336.655 972.083 337.379 972.709 338.24L972.797 338.355L976.859 396.114L991.74 464.086L991.384 464.248C990.518 464.642 971.936 473.027 962.099 473.027Z" fill="#3F3D56"/>
<path d="M953.524 450.451C954.973 450.403 956.394 450.038 957.687 449.381C958.979 448.725 960.112 447.793 961.006 446.651C961.899 445.51 962.531 444.186 962.857 442.774C963.183 441.362 963.196 439.896 962.894 438.479L981.559 425.629L976.513 412.387L950.409 430.903C948.06 431.568 946.037 433.071 944.723 435.128C943.409 437.184 942.895 439.651 943.279 442.06C943.663 444.47 944.918 446.655 946.807 448.201C948.695 449.748 951.085 450.548 953.524 450.451Z" fill="#FFB8B8"/>
<path d="M975.4 435.925L958.774 423.739L982.145 391.886L964.21 360.253L972.234 337.32L972.753 338.308C972.994 338.768 996.945 384.372 1001.12 391.68C1005.47 399.282 976.91 434.094 975.692 435.571L975.4 435.925Z" fill="#3F3D56"/>
<path d="M601.411 579.29L587.261 573.335L577.554 502.435H448.287L437.765 573.045L425.105 579.371C424.5 579.674 424.014 580.172 423.727 580.785C423.44 581.399 423.368 582.091 423.524 582.749C423.68 583.408 424.053 583.995 424.584 584.415C425.115 584.835 425.773 585.064 426.45 585.064H600.245C600.939 585.064 601.612 584.824 602.149 584.384C602.686 583.945 603.055 583.334 603.192 582.654C603.329 581.974 603.227 581.267 602.903 580.654C602.578 580.041 602.051 579.559 601.411 579.29Z" fill="#E6E6E6"/>
<path d="M831.128 511.868H196.132C192.8 511.861 189.608 510.532 187.254 508.175C184.901 505.818 183.58 502.624 183.58 499.294V409.797H843.68V499.294C843.68 502.624 842.359 505.818 840.005 508.175C837.652 510.532 834.46 511.861 831.128 511.868Z" fill="#CCCCCC"/>
<path d="M844.344 452.096H183V69.1576C183.005 65.1389 184.604 61.2861 187.447 58.4445C190.29 55.6029 194.145 54.0045 198.166 54H829.178C833.199 54.0045 837.054 55.6029 839.897 58.4445C842.74 61.2861 844.339 65.1389 844.344 69.1576V452.096Z" fill="#3F3D56"/>
<path d="M804.845 424.302H222.499C219.4 424.298 216.428 423.066 214.236 420.876C212.044 418.685 210.811 415.715 210.808 412.616V93.4792C210.811 90.3809 212.044 87.4106 214.236 85.2197C216.428 83.0289 219.4 81.7965 222.499 81.793H804.845C807.944 81.7965 810.916 83.0289 813.108 85.2197C815.3 87.4106 816.533 90.3809 816.536 93.4792V412.616C816.533 415.715 815.3 418.685 813.108 420.876C810.916 423.066 807.944 424.298 804.845 424.302Z" fill="white"/>
<path d="M676.991 585.803H349.763C349.428 585.81 349.1 585.707 348.83 585.508C348.56 585.309 348.363 585.027 348.271 584.705C348.213 584.485 348.206 584.256 348.251 584.034C348.296 583.811 348.391 583.602 348.53 583.423C348.668 583.243 348.846 583.098 349.049 582.997C349.253 582.897 349.476 582.845 349.703 582.845H676.87C677.223 582.832 677.571 582.94 677.855 583.15C678.14 583.36 678.345 583.66 678.437 584.002C678.485 584.218 678.484 584.442 678.433 584.658C678.383 584.874 678.285 585.076 678.146 585.249C678.007 585.422 677.832 585.561 677.632 585.657C677.432 585.753 677.213 585.803 676.991 585.803Z" fill="#CCCCCC"/>
<path d="M798.628 133.388H658.023V240.751H798.628V133.388Z" fill="#F2F2F2"/>
<path d="M791.641 138.723H665.01V235.416H791.641V138.723Z" fill="white"/>
<path d="M730.549 210.445C730.566 210.445 730.583 210.445 730.599 210.444C739.171 209.996 747.251 206.301 753.194 200.112C759.138 193.922 762.5 185.702 762.596 177.124C762.692 168.545 759.516 160.252 753.712 153.93C747.909 147.609 739.915 143.735 731.355 143.094C731.249 143.086 731.143 143.1 731.042 143.134C730.942 143.169 730.85 143.224 730.772 143.296C730.694 143.367 730.632 143.453 730.589 143.549C730.546 143.645 730.524 143.749 730.523 143.854L729.785 209.666C729.783 209.87 729.862 210.067 730.006 210.213C730.149 210.36 730.344 210.443 730.549 210.445Z" fill="#3F3D56"/>
<path d="M704.071 153.977C704.334 153.98 704.585 154.087 704.769 154.275L727.437 177.445C727.528 177.537 727.6 177.647 727.648 177.768C727.696 177.888 727.72 178.017 727.719 178.147L727.365 209.639C727.365 209.774 727.336 209.907 727.28 210.031C727.225 210.154 727.145 210.265 727.045 210.356C726.945 210.448 726.827 210.518 726.698 210.563C726.57 210.608 726.433 210.625 726.297 210.615C719.995 210.144 713.949 207.925 708.838 204.208C703.728 200.491 699.756 195.424 697.368 189.575C694.981 183.726 694.273 177.327 695.323 171.098C696.374 164.869 699.142 159.056 703.316 154.313C703.406 154.211 703.516 154.128 703.64 154.07C703.764 154.013 703.898 153.981 704.034 153.977C704.046 153.977 704.059 153.977 704.071 153.977Z" fill="#E6E6E6"/>
<path d="M727.121 142.825C727.374 142.828 727.616 142.927 727.799 143.102C727.897 143.196 727.975 143.308 728.027 143.433C728.08 143.558 728.106 143.692 728.104 143.827L727.785 172.24C727.783 172.436 727.722 172.627 727.612 172.788C727.501 172.95 727.345 173.075 727.164 173.147C726.982 173.22 726.783 173.238 726.591 173.197C726.4 173.157 726.224 173.061 726.087 172.921L706.307 152.702C706.213 152.606 706.14 152.492 706.091 152.367C706.043 152.241 706.02 152.107 706.025 151.973C706.03 151.839 706.063 151.707 706.12 151.585C706.178 151.464 706.259 151.355 706.36 151.266C712.113 146.205 719.406 143.232 727.059 142.826C727.08 142.825 727.1 142.825 727.121 142.825Z" fill="#F87171"/>
<path d="M716.931 224.092C716.917 225.291 716.549 226.459 715.871 227.448C715.194 228.437 714.238 229.203 713.125 229.649C712.012 230.096 710.791 230.202 709.617 229.955C708.444 229.708 707.37 229.119 706.531 228.262C705.693 227.405 705.127 226.318 704.907 225.14C704.686 223.962 704.82 222.745 705.291 221.642C705.762 220.54 706.55 219.602 707.555 218.947C708.559 218.293 709.736 217.95 710.935 217.964C712.543 217.984 714.077 218.64 715.201 219.789C716.325 220.938 716.947 222.485 716.931 224.092Z" fill="#F87171"/>
<path d="M734.255 224.286C734.242 225.485 733.873 226.653 733.196 227.642C732.518 228.631 731.563 229.397 730.449 229.844C729.336 230.29 728.116 230.396 726.942 230.149C725.769 229.902 724.695 229.313 723.856 228.456C723.018 227.599 722.452 226.512 722.231 225.334C722.011 224.156 722.144 222.939 722.616 221.836C723.087 220.734 723.875 219.796 724.88 219.141C725.884 218.487 727.06 218.144 728.26 218.158C729.867 218.178 731.401 218.834 732.525 219.983C733.649 221.132 734.272 222.68 734.255 224.286Z" fill="#3F3D56"/>
<path d="M751.58 224.48C751.567 225.679 751.198 226.847 750.521 227.836C749.843 228.825 748.887 229.591 747.774 230.038C746.661 230.484 745.44 230.59 744.267 230.343C743.093 230.096 742.019 229.507 741.181 228.65C740.342 227.793 739.777 226.706 739.556 225.528C739.335 224.35 739.469 223.133 739.94 222.03C740.412 220.928 741.2 219.99 742.204 219.336C743.209 218.681 744.385 218.339 745.584 218.352C747.192 218.372 748.726 219.028 749.85 220.177C750.974 221.326 751.596 222.874 751.58 224.48Z" fill="#E6E6E6"/>
<path d="M797.148 257.648H656.543V365.011H797.148V257.648Z" fill="#F2F2F2"/>
<path d="M790.161 262.983H663.53V359.676H790.161V262.983Z" fill="white"/>
<path d="M685.015 294.763C687.919 294.763 690.273 292.41 690.273 289.508C690.273 286.605 687.919 284.252 685.015 284.252C682.111 284.252 679.757 286.605 679.757 289.508C679.757 292.41 682.111 294.763 685.015 294.763Z" fill="#3F3D56"/>
<path d="M769.494 285.418C769.963 285.417 770.427 285.509 770.861 285.688C771.294 285.867 771.688 286.129 772.019 286.46C772.351 286.791 772.614 287.184 772.794 287.617C772.973 288.05 773.066 288.514 773.066 288.982C773.066 289.451 772.973 289.915 772.794 290.347C772.614 290.78 772.351 291.173 772.019 291.504C771.688 291.835 771.294 292.098 770.861 292.277C770.427 292.455 769.963 292.547 769.494 292.546H714.196C713.25 292.546 712.343 292.171 711.674 291.502C711.006 290.834 710.63 289.927 710.63 288.982C710.63 288.037 711.006 287.13 711.674 286.462C712.343 285.794 713.25 285.418 714.196 285.418H769.494ZM769.494 284.545H714.196C713.612 284.545 713.034 284.659 712.495 284.881C711.956 285.104 711.466 285.431 711.053 285.843C710.64 286.255 710.312 286.744 710.089 287.283C709.865 287.822 709.75 288.399 709.75 288.982C709.75 289.565 709.865 290.143 710.089 290.682C710.312 291.22 710.64 291.71 711.053 292.122C711.466 292.534 711.956 292.861 712.495 293.083C713.034 293.306 713.612 293.42 714.196 293.419H769.494C770.078 293.42 770.656 293.306 771.195 293.083C771.734 292.861 772.225 292.534 772.637 292.122C773.05 291.71 773.378 291.22 773.601 290.682C773.825 290.143 773.94 289.565 773.94 288.982C773.94 288.399 773.825 287.822 773.601 287.283C773.378 286.744 773.05 286.255 772.637 285.843C772.225 285.431 771.734 285.104 771.195 284.881C770.656 284.659 770.078 284.545 769.494 284.545Z" fill="#3F3D56"/>
<path d="M747.675 293.419H706.046C704.869 293.419 703.74 292.952 702.907 292.119C702.075 291.287 701.607 290.159 701.607 288.982C701.607 287.805 702.075 286.677 702.907 285.845C703.74 285.013 704.869 284.545 706.046 284.545H747.675C748.852 284.545 749.981 285.013 750.813 285.845C751.646 286.677 752.114 287.805 752.114 288.982C752.114 290.159 751.646 291.287 750.813 292.119C749.981 292.952 748.852 293.419 747.675 293.419Z" fill="#F87171"/>
<path d="M685.015 316.584C687.919 316.584 690.273 314.232 690.273 311.329C690.273 308.427 687.919 306.074 685.015 306.074C682.111 306.074 679.757 308.427 679.757 311.329C679.757 314.232 682.111 316.584 685.015 316.584Z" fill="#3F3D56"/>
<path d="M769.494 307.24C769.963 307.239 770.427 307.331 770.861 307.51C771.294 307.688 771.688 307.951 772.019 308.282C772.351 308.613 772.614 309.006 772.794 309.439C772.974 309.872 773.066 310.335 773.066 310.804C773.066 311.273 772.974 311.736 772.794 312.169C772.614 312.602 772.351 312.995 772.019 313.326C771.688 313.657 771.294 313.92 770.861 314.098C770.427 314.277 769.963 314.369 769.494 314.368H714.196C713.25 314.368 712.343 313.992 711.674 313.324C711.006 312.656 710.63 311.749 710.63 310.804C710.63 309.859 711.006 308.952 711.674 308.284C712.343 307.616 713.25 307.24 714.196 307.24H769.494ZM769.494 306.367H714.196C713.019 306.367 711.889 306.835 711.057 307.667C710.224 308.499 709.757 309.627 709.757 310.804C709.757 311.981 710.224 313.109 711.057 313.941C711.889 314.773 713.019 315.241 714.196 315.241H769.494C770.672 315.241 771.801 314.773 772.633 313.941C773.466 313.109 773.933 311.981 773.933 310.804C773.933 309.627 773.466 308.499 772.633 307.667C771.801 306.835 770.672 306.367 769.494 306.367Z" fill="#3F3D56"/>
<path d="M763.394 315.241H706.046C704.869 315.241 703.74 314.773 702.908 313.941C702.075 313.109 701.607 311.981 701.607 310.804C701.607 309.627 702.075 308.499 702.908 307.667C703.74 306.835 704.869 306.367 706.046 306.367H763.394C764.572 306.367 765.701 306.835 766.533 307.667C767.366 308.499 767.833 309.627 767.833 310.804C767.833 311.981 767.366 313.109 766.533 313.941C765.701 314.773 764.572 315.241 763.394 315.241Z" fill="#F87171"/>
<path d="M685.015 338.406C687.919 338.406 690.273 336.053 690.273 333.151C690.273 330.249 687.919 327.896 685.015 327.896C682.111 327.896 679.757 330.249 679.757 333.151C679.757 336.053 682.111 338.406 685.015 338.406Z" fill="#3F3D56"/>
<path d="M769.494 329.062C769.963 329.061 770.427 329.153 770.861 329.331C771.294 329.51 771.688 329.773 772.019 330.104C772.351 330.435 772.614 330.828 772.794 331.261C772.974 331.693 773.066 332.157 773.066 332.626C773.066 333.094 772.974 333.558 772.794 333.991C772.614 334.424 772.351 334.817 772.019 335.148C771.688 335.479 771.294 335.741 770.861 335.92C770.427 336.099 769.963 336.19 769.494 336.19H714.196C713.25 336.19 712.343 335.814 711.674 335.146C711.006 334.477 710.63 333.571 710.63 332.626C710.63 331.681 711.006 330.774 711.674 330.106C712.343 329.437 713.25 329.062 714.196 329.062H769.494ZM769.494 328.189H714.196C713.019 328.189 711.889 328.656 711.057 329.488C710.224 330.321 709.757 331.449 709.757 332.626C709.757 333.802 710.224 334.931 711.057 335.763C711.889 336.595 713.019 337.063 714.196 337.063H769.494C770.672 337.063 771.801 336.595 772.633 335.763C773.466 334.931 773.933 333.802 773.933 332.626C773.933 331.449 773.466 330.321 772.633 329.488C771.801 328.656 770.672 328.189 769.494 328.189Z" fill="#3F3D56"/>
<path d="M729.335 337.063H706.046C705.463 337.063 704.885 336.949 704.346 336.727C703.806 336.504 703.316 336.177 702.903 335.765C702.49 335.353 702.163 334.864 701.939 334.325C701.716 333.786 701.601 333.209 701.601 332.626C701.601 332.043 701.716 331.465 701.939 330.926C702.163 330.388 702.49 329.898 702.903 329.486C703.316 329.074 703.806 328.747 704.346 328.525C704.885 328.302 705.463 328.188 706.046 328.189H729.335C730.511 328.191 731.638 328.659 732.469 329.491C733.301 330.323 733.767 331.45 733.767 332.626C733.767 333.801 733.301 334.929 732.469 335.761C731.638 336.593 730.511 337.061 729.335 337.063Z" fill="#F87171"/>
<path d="M625.462 152.383H232.638V353.602H625.462V152.383Z" fill="#F2F2F2"/>
<path d="M612.368 162.381H245.732V343.603H612.368V162.381Z" fill="white"/>
<path d="M566.897 315.956H299.627C299.405 315.956 299.192 315.868 299.036 315.711C298.879 315.555 298.791 315.342 298.791 315.12V187.083C298.791 186.862 298.879 186.649 299.036 186.492C299.192 186.335 299.405 186.247 299.627 186.247C299.849 186.247 300.062 186.335 300.218 186.492C300.375 186.649 300.463 186.862 300.463 187.083V314.284H566.897C567.119 314.284 567.332 314.372 567.489 314.529C567.646 314.686 567.734 314.899 567.734 315.12C567.734 315.342 567.646 315.555 567.489 315.711C567.332 315.868 567.119 315.956 566.897 315.956Z" fill="#3F3D56"/>
<path d="M356.731 306.76H332.422C331.764 306.759 331.132 306.498 330.667 306.033C330.201 305.567 329.94 304.937 329.939 304.279V270.785C329.94 270.128 330.201 269.497 330.667 269.032C331.132 268.566 331.764 268.305 332.422 268.304H356.731C357.389 268.305 358.02 268.566 358.486 269.032C358.951 269.497 359.213 270.128 359.214 270.785V304.279C359.213 304.937 358.951 305.567 358.486 306.033C358.02 306.498 357.389 306.759 356.731 306.76Z" fill="#F87171"/>
<path d="M401.062 306.76H376.753C376.095 306.759 375.463 306.498 374.998 306.033C374.533 305.567 374.271 304.937 374.27 304.279V239.017C374.271 238.359 374.533 237.728 374.998 237.263C375.463 236.798 376.095 236.536 376.753 236.536H401.062C401.72 236.536 402.351 236.798 402.817 237.263C403.282 237.728 403.544 238.359 403.545 239.017V304.279C403.544 304.937 403.282 305.567 402.817 306.033C402.351 306.498 401.72 306.759 401.062 306.76Z" fill="#F87171"/>
<path d="M445.393 306.76H421.084C420.426 306.759 419.794 306.498 419.329 306.033C418.864 305.567 418.602 304.937 418.601 304.279V270.785C418.602 270.128 418.864 269.497 419.329 269.032C419.794 268.566 420.426 268.305 421.084 268.304H445.393C446.051 268.305 446.683 268.566 447.148 269.032C447.613 269.497 447.875 270.128 447.876 270.785V304.279C447.875 304.937 447.613 305.567 447.148 306.033C446.683 306.498 446.051 306.759 445.393 306.76Z" fill="#F87171"/>
<path d="M489.724 306.76H465.415C464.772 306.774 464.149 306.532 463.684 306.088C463.218 305.644 462.948 305.034 462.932 304.391V226.365C462.948 225.722 463.218 225.112 463.684 224.667C464.149 224.223 464.772 223.982 465.415 223.996H489.724C490.367 223.982 490.99 224.223 491.455 224.667C491.921 225.112 492.191 225.722 492.207 226.365V304.391C492.191 305.034 491.921 305.644 491.455 306.088C490.99 306.532 490.367 306.774 489.724 306.76Z" fill="#F87171"/>
<path d="M534.055 306.76H509.746C509.088 306.76 508.457 306.498 507.991 306.033C507.526 305.567 507.264 304.937 507.263 304.279V203.905C507.264 203.247 507.526 202.616 507.991 202.151C508.457 201.686 509.088 201.424 509.746 201.424H534.055C534.713 201.424 535.345 201.686 535.81 202.151C536.276 202.616 536.537 203.247 536.538 203.905V304.279C536.537 304.937 536.276 305.567 535.81 306.033C535.345 306.498 534.713 306.76 534.055 306.76Z" fill="#F87171"/>
<path d="M344.576 258.272C347.348 258.272 349.595 256.026 349.595 253.256C349.595 250.485 347.348 248.24 344.576 248.24C341.805 248.24 339.558 250.485 339.558 253.256C339.558 256.026 341.805 258.272 344.576 258.272Z" fill="#3F3D56"/>
<path d="M388.907 225.668C391.679 225.668 393.926 223.422 393.926 220.652C393.926 217.881 391.679 215.635 388.907 215.635C386.136 215.635 383.889 217.881 383.889 220.652C383.889 223.422 386.136 225.668 388.907 225.668Z" fill="#3F3D56"/>
<path d="M433.238 258.272C436.01 258.272 438.257 256.026 438.257 253.256C438.257 250.485 436.01 248.24 433.238 248.24C430.467 248.24 428.22 250.485 428.22 253.256C428.22 256.026 430.467 258.272 433.238 258.272Z" fill="#3F3D56"/>
<path d="M477.569 209.784C480.341 209.784 482.588 207.538 482.588 204.768C482.588 201.997 480.341 199.751 477.569 199.751C474.798 199.751 472.551 201.997 472.551 204.768C472.551 207.538 474.798 209.784 477.569 209.784Z" fill="#3F3D56"/>
<path d="M521.901 191.391C524.672 191.391 526.919 189.146 526.919 186.375C526.919 183.605 524.672 181.359 521.901 181.359C519.129 181.359 516.882 183.605 516.882 186.375C516.882 189.146 519.129 191.391 521.901 191.391Z" fill="#3F3D56"/>
<path d="M433.344 254.379L388.908 221.113L345.078 253.925L344.075 252.587L388.908 219.023L433.133 252.132L477.081 204.064L477.256 203.992L521.588 186.14L522.213 187.691L478.058 205.472L433.344 254.379Z" fill="#3F3D56"/>
<path d="M1096.03 666H726.57C726.313 666 726.066 665.898 725.884 665.716C725.702 665.534 725.6 665.288 725.6 665.031C725.6 664.774 725.702 664.527 725.884 664.345C726.066 664.164 726.313 664.062 726.57 664.062H1096.03C1096.29 664.062 1096.53 664.164 1096.72 664.345C1096.9 664.527 1097 664.774 1097 665.031C1097 665.288 1096.9 665.534 1096.72 665.716C1096.53 665.898 1096.29 666 1096.03 666Z" fill="#CCCCCC"/>
</g>
</g>
<defs>
<clipPath id="clip0">
<rect width="1280" height="720" fill="white"/>
</clipPath>
<clipPath id="clip1">
<rect width="914" height="612" fill="white" transform="translate(183 54)"/>
</clipPath>
</defs>
</svg>
