<svg width="1280" height="720" viewBox="0 0 1280 720" fill="none" xmlns="http://www.w3.org/2000/svg">
<g clip-path="url(#clip0)">
<rect width="1280" height="720" fill="#7EB0EE" fill-opacity="0.6"/>
<circle cx="1162.5" cy="697.5" r="158.5" fill="#699BD8" fill-opacity="0.8"/>
<circle cx="385.5" cy="36.5" r="117.5" fill="#699BD8" fill-opacity="0.8"/>
<circle cx="34.5" cy="393.5" r="212.5" fill="#699BD8" fill-opacity="0.8"/>
<g clip-path="url(#clip1)">
<path d="M327.534 352.434C341.099 352.434 352.095 341.437 352.095 327.873C352.095 314.308 341.099 303.312 327.534 303.312C313.969 303.312 302.973 314.308 302.973 327.873C302.973 341.437 313.969 352.434 327.534 352.434Z" fill="#FFB8B8"/>
<path d="M244.543 622.197L250.762 632.763L294.474 613.803L285.295 598.21L244.543 622.197Z" fill="#FFB8B8"/>
<path d="M246.407 617.472L258.654 638.279L258.654 638.28C259.679 640.021 260.351 641.947 260.632 643.948C260.912 645.949 260.796 647.986 260.289 649.942C259.783 651.898 258.896 653.735 257.679 655.349C256.463 656.962 254.94 658.32 253.199 659.344L252.768 659.598L232.716 625.531L246.407 617.472Z" fill="#2F2E41"/>
<path d="M316.6 660.26L328.86 660.259L334.692 612.971L316.598 612.972L316.6 660.26Z" fill="#FFB8B8"/>
<path d="M313.473 656.257L337.617 656.256H337.618C339.638 656.256 341.639 656.654 343.506 657.427C345.373 658.2 347.069 659.334 348.498 660.762C349.927 662.191 351.06 663.887 351.833 665.754C352.606 667.621 353.004 669.622 353.004 671.642V672.142L313.474 672.144L313.473 656.257Z" fill="#2F2E41"/>
<path d="M267.311 631.61C266.606 631.61 265.91 631.445 265.281 631.126C264.651 630.808 264.105 630.345 263.687 629.777L251.864 613.718C251.503 613.228 251.245 612.671 251.106 612.078C250.967 611.486 250.95 610.872 251.055 610.273C251.16 609.673 251.386 609.102 251.718 608.592C252.05 608.083 252.482 607.646 252.988 607.308L305.602 572.167L273.856 488.692L341.745 494.294L344.031 566.028C344.246 572.561 342.68 579.029 339.502 584.74C336.323 590.451 331.651 595.191 325.986 598.452L269.56 631.005C268.877 631.401 268.101 631.61 267.311 631.61V631.61Z" fill="#2F2E41"/>
<path d="M316.97 650.66C315.806 650.657 314.688 650.204 313.851 649.395C313.014 648.586 312.523 647.483 312.481 646.32L309.993 576.438L340.802 574.815L338.349 645.199C338.313 646.314 337.862 647.375 337.086 648.177C336.309 648.978 335.262 649.461 334.149 649.532L317.276 650.65C317.174 650.657 317.072 650.66 316.97 650.66Z" fill="#2F2E41"/>
<path d="M349.602 508.171C341.763 508.171 314.385 499.355 304.881 496.212C303.459 497.35 295.647 503.191 286.529 502.123C280.903 501.463 275.951 498.279 271.809 492.658C262.662 480.243 273.959 427.006 285.048 384.532C287.271 375.946 292.735 368.557 300.294 363.917C307.852 359.277 316.914 357.748 325.576 359.652V359.652C331.854 361.038 337.621 364.147 342.23 368.63C346.838 373.113 350.105 378.792 351.664 385.03C353.751 393.528 351.956 403.524 350.644 410.824C350.028 414.255 349.541 416.966 349.707 418.298C350.351 423.447 353.926 504.19 351.627 507.638C351.382 508.005 350.674 508.171 349.602 508.171Z" fill="#60A5FA"/>
<path d="M320.927 508.314C322.187 507.376 323.225 506.174 323.97 504.791C324.715 503.408 325.147 501.879 325.237 500.311C325.327 498.743 325.072 497.175 324.49 495.716C323.908 494.257 323.013 492.944 321.868 491.868L322.354 394.025L299.309 397.862L306.078 492.833C304.399 494.875 303.527 497.463 303.628 500.105C303.729 502.747 304.796 505.26 306.626 507.169C308.456 509.077 310.923 510.248 313.559 510.459C316.195 510.67 318.816 509.907 320.927 508.314V508.314Z" fill="#FFB8B8"/>
<path d="M326.257 456.861H301.435C300.25 456.857 299.113 456.388 298.271 455.553C297.429 454.719 296.949 453.587 296.935 452.402L296.326 385.11C296.305 382.783 296.745 380.475 297.621 378.32C298.498 376.164 299.793 374.204 301.432 372.552C303.071 370.9 305.021 369.59 307.17 368.696C309.318 367.803 311.623 367.344 313.949 367.347C316.276 367.35 318.58 367.814 320.726 368.713C322.872 369.611 324.819 370.927 326.454 372.582C328.089 374.238 329.379 376.202 330.251 378.359C331.122 380.517 331.557 382.826 331.53 385.153L330.757 452.413C330.739 453.596 330.258 454.725 329.416 455.557C328.575 456.388 327.44 456.857 326.257 456.861V456.861Z" fill="#60A5FA"/>
<path d="M321.28 352.331C310.035 352.352 299.426 343.463 297.477 332.388C296.78 328.037 297.094 323.584 298.397 319.374C299.811 314.582 302.236 310.149 305.508 306.373C308.781 302.597 312.825 299.567 317.367 297.487C321.91 295.406 326.846 294.324 331.842 294.313C336.839 294.302 341.78 295.362 346.332 297.421C349.34 298.783 352.303 300.738 353.681 303.739C355.058 306.74 354.196 310.934 351.183 312.285C349.214 313.167 346.743 312.734 344.996 314C342.486 315.82 343.132 319.692 344.253 322.581C345.373 325.471 346.641 328.968 344.762 331.434C343.012 333.731 339.514 333.66 336.758 332.795C334.002 331.93 331.282 330.482 328.409 330.777C324.219 331.206 321.208 335.375 320.65 339.55C320.093 343.725 321.405 347.899 322.7 351.907L321.28 352.331Z" fill="#2F2E41"/>
<path d="M436 673.085H178C177.735 673.085 177.48 672.98 177.293 672.792C177.105 672.605 177 672.35 177 672.085C177 671.82 177.105 671.565 177.293 671.378C177.48 671.19 177.735 671.085 178 671.085H436C436.265 671.085 436.52 671.19 436.707 671.378C436.895 671.565 437 671.82 437 672.085C437 672.35 436.895 672.605 436.707 672.792C436.52 672.98 436.265 673.085 436 673.085Z" fill="#CCCCCC"/>
<path d="M1087.12 507.548H446.283C441.909 507.543 437.715 505.803 434.621 502.71C431.528 499.616 429.788 495.422 429.783 491.048V95.894C429.787 92.6892 431.061 89.6166 433.328 87.3504C435.594 85.0842 438.666 83.8094 441.871 83.8057H1091.32C1094.58 83.8094 1097.71 85.1062 1100.02 87.4116C1102.32 89.717 1103.62 92.8427 1103.62 96.103V491.048C1103.62 495.422 1101.88 499.616 1098.78 502.71C1095.69 505.803 1091.5 507.543 1087.12 507.548V507.548Z" fill="#F2F2F2"/>
<path d="M1066.4 486.716H469.157C460.402 486.716 453.28 480.046 453.28 471.847V127.742C453.28 121.662 458.558 116.716 465.045 116.716H1070.32C1076.91 116.716 1082.28 121.744 1082.28 127.924V471.847C1082.28 480.046 1075.16 486.716 1066.4 486.716Z" fill="white"/>
<path d="M1103.39 97.9502H429.552V89.5498C429.558 85.1607 431.305 80.9533 434.409 77.8507C437.514 74.7481 441.722 73.0036 446.112 73H1086.83C1091.22 73.0036 1095.43 74.7481 1098.53 77.8507C1101.64 80.9533 1103.39 85.1607 1103.39 89.5498V97.9502Z" fill="#3F3D56"/>
<path d="M459.647 89.7834C462.013 89.7834 463.93 87.8656 463.93 85.5C463.93 83.1343 462.013 81.2166 459.647 81.2166C457.281 81.2166 455.364 83.1343 455.364 85.5C455.364 87.8656 457.281 89.7834 459.647 89.7834Z" fill="white"/>
<path d="M475.906 89.7834C478.271 89.7834 480.189 87.8656 480.189 85.5C480.189 83.1343 478.271 81.2166 475.906 81.2166C473.54 81.2166 471.622 83.1343 471.622 85.5C471.622 87.8656 473.54 89.7834 475.906 89.7834Z" fill="white"/>
<path d="M492.165 89.7834C494.53 89.7834 496.448 87.8656 496.448 85.5C496.448 83.1343 494.53 81.2166 492.165 81.2166C489.799 81.2166 487.881 83.1343 487.881 85.5C487.881 87.8656 489.799 89.7834 492.165 89.7834Z" fill="white"/>
<path d="M753.611 191.955H636.802C635.061 191.955 633.391 191.263 632.159 190.031C630.928 188.8 630.236 187.13 630.236 185.388C630.236 183.647 630.928 181.977 632.159 180.745C633.391 179.514 635.061 178.822 636.802 178.822H753.611C755.352 178.822 757.022 179.514 758.254 180.745C759.485 181.977 760.177 183.647 760.177 185.388C760.177 187.13 759.485 188.8 758.254 190.031C757.022 191.263 755.352 191.955 753.611 191.955V191.955Z" fill="#CCCCCC"/>
<path d="M898.757 191.955H781.948C780.207 191.955 778.537 191.263 777.305 190.031C776.074 188.8 775.382 187.13 775.382 185.388C775.382 183.647 776.074 181.977 777.305 180.745C778.537 179.514 780.207 178.822 781.948 178.822H898.757C900.498 178.822 902.168 179.514 903.4 180.745C904.631 181.977 905.323 183.647 905.323 185.388C905.323 187.13 904.631 188.8 903.4 190.031C902.168 191.263 900.498 191.955 898.757 191.955V191.955Z" fill="#CCCCCC"/>
<path d="M898.757 216.837H695.552C693.811 216.837 692.14 216.145 690.909 214.913C689.678 213.682 688.986 212.012 688.986 210.27C688.986 208.529 689.678 206.859 690.909 205.628C692.14 204.396 693.811 203.704 695.552 203.704H898.757C900.498 203.704 902.168 204.396 903.4 205.628C904.631 206.859 905.323 208.529 905.323 210.27C905.323 212.012 904.631 213.682 903.4 214.913C902.168 216.145 900.498 216.837 898.757 216.837Z" fill="#CCCCCC"/>
<path d="M753.611 166.727H636.802C635.062 166.725 633.394 166.032 632.165 164.801C630.935 163.57 630.244 161.901 630.244 160.161C630.244 158.421 630.935 156.752 632.165 155.521C633.394 154.289 635.062 153.597 636.802 153.594H753.611C754.474 153.593 755.328 153.762 756.126 154.092C756.923 154.421 757.648 154.905 758.259 155.515C758.869 156.125 759.354 156.849 759.684 157.646C760.015 158.443 760.185 159.298 760.185 160.161C760.185 161.024 760.015 161.878 759.684 162.675C759.354 163.472 758.869 164.197 758.259 164.806C757.648 165.416 756.923 165.9 756.126 166.229C755.328 166.559 754.474 166.728 753.611 166.727V166.727Z" fill="#CCCCCC"/>
<path d="M817.889 167.072H784.713C782.972 167.072 781.302 166.38 780.07 165.149C778.839 163.918 778.147 162.248 778.147 160.506C778.147 158.765 778.839 157.095 780.07 155.863C781.302 154.632 782.972 153.94 784.713 153.94H817.889C819.631 153.94 821.301 154.632 822.532 155.863C823.764 157.095 824.456 158.765 824.456 160.506C824.456 162.248 823.764 163.918 822.532 165.149C821.301 166.38 819.631 167.072 817.889 167.072Z" fill="#CCCCCC"/>
<path d="M669.979 216.837H636.802C635.062 216.834 633.394 216.142 632.165 214.911C630.935 213.679 630.244 212.011 630.244 210.27C630.244 208.53 630.935 206.862 632.165 205.63C633.394 204.399 635.062 203.706 636.802 203.704H669.979C670.842 203.703 671.696 203.872 672.494 204.202C673.292 204.531 674.016 205.015 674.627 205.625C675.237 206.234 675.722 206.959 676.052 207.756C676.383 208.553 676.553 209.408 676.553 210.27C676.553 211.133 676.383 211.988 676.052 212.785C675.722 213.582 675.237 214.306 674.627 214.916C674.016 215.526 673.292 216.01 672.494 216.339C671.696 216.669 670.842 216.838 669.979 216.837Z" fill="#CCCCCC"/>
<path d="M753.611 424.955H636.802C635.061 424.955 633.391 424.263 632.159 423.031C630.928 421.8 630.236 420.13 630.236 418.388C630.236 416.647 630.928 414.977 632.159 413.745C633.391 412.514 635.061 411.822 636.802 411.822H753.611C754.473 411.822 755.327 411.992 756.123 412.322C756.92 412.652 757.644 413.136 758.254 413.745C758.863 414.355 759.347 415.079 759.677 415.876C760.007 416.672 760.177 417.526 760.177 418.388C760.177 419.251 760.007 420.105 759.677 420.901C759.347 421.698 758.863 422.422 758.254 423.031C757.644 423.641 756.92 424.125 756.123 424.455C755.327 424.785 754.473 424.955 753.611 424.955V424.955Z" fill="#CCCCCC"/>
<path d="M898.757 424.955H781.948C780.207 424.955 778.537 424.263 777.305 423.031C776.074 421.8 775.382 420.13 775.382 418.388C775.382 416.647 776.074 414.977 777.305 413.745C778.537 412.514 780.207 411.822 781.948 411.822H898.757C899.619 411.822 900.473 411.992 901.269 412.322C902.066 412.652 902.79 413.136 903.4 413.745C904.009 414.355 904.493 415.079 904.823 415.876C905.153 416.672 905.323 417.526 905.323 418.388C905.323 419.251 905.153 420.105 904.823 420.901C904.493 421.698 904.009 422.422 903.4 423.031C902.79 423.641 902.066 424.125 901.269 424.455C900.473 424.785 899.619 424.955 898.757 424.955V424.955Z" fill="#CCCCCC"/>
<path d="M898.757 449.837H695.552C693.811 449.837 692.14 449.145 690.909 447.913C689.678 446.682 688.986 445.012 688.986 443.27C688.986 441.529 689.678 439.859 690.909 438.628C692.14 437.396 693.811 436.704 695.552 436.704H898.757C899.62 436.703 900.474 436.872 901.272 437.202C902.069 437.531 902.794 438.015 903.405 438.625C904.015 439.234 904.5 439.959 904.83 440.756C905.161 441.553 905.331 442.407 905.331 443.27C905.331 444.133 905.161 444.988 904.83 445.785C904.5 446.582 904.015 447.306 903.405 447.916C902.794 448.526 902.069 449.01 901.272 449.339C900.474 449.669 899.62 449.838 898.757 449.837Z" fill="#CCCCCC"/>
<path d="M753.611 399.727H636.802C635.061 399.727 633.391 399.035 632.159 397.804C630.928 396.572 630.236 394.902 630.236 393.161C630.236 391.419 630.928 389.749 632.159 388.518C633.391 387.286 635.061 386.594 636.802 386.594H753.611C755.352 386.594 757.022 387.286 758.254 388.518C759.485 389.749 760.177 391.419 760.177 393.161C760.177 394.902 759.485 396.572 758.254 397.804C757.022 399.035 755.352 399.727 753.611 399.727Z" fill="#CCCCCC"/>
<path d="M817.889 400.072H784.713C782.972 400.072 781.302 399.38 780.07 398.149C778.839 396.918 778.147 395.248 778.147 393.506C778.147 391.765 778.839 390.095 780.07 388.863C781.302 387.632 782.972 386.94 784.713 386.94H817.889C819.631 386.94 821.301 387.632 822.532 388.863C823.764 390.095 824.456 391.765 824.456 393.506C824.456 395.248 823.764 396.918 822.532 398.149C821.301 399.38 819.631 400.072 817.889 400.072V400.072Z" fill="#CCCCCC"/>
<path d="M669.979 449.837H636.802C635.061 449.837 633.391 449.145 632.159 447.913C630.928 446.682 630.236 445.012 630.236 443.27C630.236 441.529 630.928 439.859 632.159 438.628C633.391 437.396 635.061 436.704 636.802 436.704H669.979C670.842 436.703 671.696 436.872 672.494 437.202C673.292 437.531 674.016 438.015 674.627 438.625C675.237 439.234 675.722 439.959 676.052 440.756C676.383 441.553 676.553 442.407 676.553 443.27C676.553 444.133 676.383 444.988 676.052 445.785C675.722 446.582 675.237 447.306 674.627 447.916C674.016 448.526 673.292 449.01 672.494 449.339C671.696 449.669 670.842 449.838 669.979 449.837Z" fill="#CCCCCC"/>
<path d="M723.104 354.462C720.625 354.467 718.244 353.493 716.48 351.752L672.572 308.392C671.71 307.541 671.025 306.527 670.558 305.409C670.091 304.291 669.85 303.092 669.85 301.881C669.85 300.669 670.091 299.47 670.558 298.352C671.025 297.234 671.71 296.22 672.572 295.369L716.303 252.185C718.125 250.394 720.579 249.395 723.133 249.403C725.688 249.411 728.136 250.426 729.946 252.228C731.759 254.044 732.776 256.505 732.776 259.071C732.776 261.637 731.759 264.098 729.946 265.914L697.45 298.411C696.438 299.426 695.869 300.801 695.869 302.234C695.869 303.668 696.438 305.043 697.45 306.057L729.77 338.378C731.09 339.695 731.989 341.374 732.354 343.203C732.718 345.031 732.532 346.927 731.818 348.65C731.104 350.372 729.894 351.844 728.343 352.879C726.792 353.913 724.968 354.464 723.104 354.462V354.462Z" fill="#60A5FA"/>
<path d="M793.069 354.462C791.205 354.464 789.381 353.913 787.83 352.879C786.279 351.844 785.07 350.372 784.356 348.65C783.642 346.927 783.455 345.031 783.82 343.203C784.184 341.374 785.083 339.695 786.403 338.378L818.723 306.057C819.735 305.043 820.304 303.668 820.304 302.234C820.304 300.801 819.735 299.426 818.723 298.411L786.227 265.914C785.328 265.016 784.615 263.949 784.129 262.774C783.642 261.6 783.392 260.342 783.392 259.071C783.392 257.8 783.642 256.541 784.129 255.367C784.615 254.193 785.328 253.126 786.227 252.228V252.228C788.037 250.426 790.485 249.411 793.04 249.403C795.594 249.395 798.049 250.394 799.87 252.185L843.602 295.369C844.464 296.22 845.148 297.234 845.615 298.352C846.082 299.47 846.323 300.669 846.323 301.881C846.323 303.092 846.082 304.292 845.615 305.409C845.148 306.527 844.464 307.541 843.602 308.392L799.693 351.752C797.929 353.493 795.548 354.467 793.069 354.462Z" fill="#60A5FA"/>
</g>
</g>
<defs>
<clipPath id="clip0">
<rect width="1280" height="720" fill="white"/>
</clipPath>
<clipPath id="clip1">
<rect width="926.622" height="600.085" fill="white" transform="translate(177 73)"/>
</clipPath>
</defs>
</svg>
