<svg width="1280" height="720" viewBox="0 0 1280 720" fill="none" xmlns="http://www.w3.org/2000/svg">
<g clip-path="url(#clip0)">
<rect width="1280" height="720" fill="#6FEABD" fill-opacity="0.6"/>
<circle cx="518" cy="680" r="147" fill="#64C9A4" fill-opacity="0.8"/>
<circle cx="1101" cy="236" r="147" fill="#64C9A4" fill-opacity="0.8"/>
<circle cx="31" cy="82" r="264" fill="#64C9A4" fill-opacity="0.8"/>
<g clip-path="url(#clip1)">
<path d="M987.017 556.138H260.633C255.675 556.132 250.921 554.158 247.415 550.647C243.909 547.137 241.936 542.378 241.931 537.413V88.9809C241.935 85.344 243.38 81.8571 245.948 79.2853C248.517 76.7136 251.999 75.2669 255.632 75.2627H991.781C995.476 75.2669 999.019 76.7385 1001.63 79.3548C1004.25 81.971 1005.72 85.5182 1005.72 89.2181V537.413C1005.71 542.378 1003.74 547.137 1000.24 550.647C996.729 554.158 991.975 556.132 987.017 556.138V556.138Z" fill="#F2F2F2"/>
<path d="M960.519 533.025H283.548C273.625 533.025 265.551 525.456 265.551 516.152V125.652C265.551 118.752 271.534 113.138 278.887 113.138H964.959C972.434 113.138 978.516 118.844 978.516 125.858V516.152C978.516 525.456 970.442 533.025 960.519 533.025Z" fill="white"/>
<path d="M1005.46 91.3143H241.668V81.7812C241.675 76.8003 243.656 72.0257 247.175 68.5047C250.694 64.9838 255.464 63.0041 260.439 63H986.688C991.663 63.0041 996.434 64.9838 999.953 68.5047C1003.47 72.0256 1005.45 76.8003 1005.46 81.7812V91.3143Z" fill="#34D399"/>
<path d="M275.781 82.0464C278.462 82.0464 280.636 79.87 280.636 77.1854C280.636 74.5008 278.462 72.3245 275.781 72.3245C273.099 72.3245 270.926 74.5008 270.926 77.1854C270.926 79.87 273.099 82.0464 275.781 82.0464Z" fill="white"/>
<path d="M294.21 82.0464C296.892 82.0464 299.065 79.87 299.065 77.1854C299.065 74.5008 296.892 72.3245 294.21 72.3245C291.529 72.3245 289.355 74.5008 289.355 77.1854C289.355 79.87 291.529 82.0464 294.21 82.0464Z" fill="white"/>
<path d="M312.639 82.0464C315.321 82.0464 317.494 79.87 317.494 77.1854C317.494 74.5008 315.321 72.3245 312.639 72.3245C309.958 72.3245 307.784 74.5008 307.784 77.1854C307.784 79.87 309.958 82.0464 312.639 82.0464Z" fill="white"/>
<path d="M602.008 482.64H366.425C361.166 482.634 356.124 480.54 352.406 476.817C348.687 473.094 346.595 468.046 346.589 462.781V177.764C346.594 173.826 348.158 170.051 350.939 167.266C353.72 164.482 357.491 162.915 361.424 162.911H606.772C610.768 162.915 614.599 164.507 617.425 167.336C620.25 170.165 621.84 174 621.844 178.001V462.781C621.838 468.046 619.746 473.094 616.028 476.817C612.309 480.54 607.267 482.634 602.008 482.64V482.64ZM361.424 165.18C358.092 165.184 354.897 166.511 352.541 168.87C350.185 171.229 348.86 174.428 348.856 177.764V462.781C348.861 467.444 350.714 471.915 354.008 475.213C357.302 478.51 361.767 480.365 366.425 480.37H602.008C606.666 480.365 611.132 478.51 614.425 475.213C617.719 471.915 619.572 467.444 619.577 462.781V178.001C619.573 174.602 618.223 171.343 615.822 168.94C613.422 166.536 610.167 165.184 606.772 165.18H361.424Z" fill="#CCCCCC"/>
<path d="M384.561 462.781H583.872C588.682 462.781 593.295 460.868 596.696 457.462C600.097 454.057 602.008 449.439 602.008 444.623V201.148C602.008 196.332 600.097 191.714 596.696 188.309C593.295 184.904 588.682 182.991 583.872 182.991H384.561C379.751 182.991 375.138 184.904 371.737 188.309C368.336 191.714 366.425 196.332 366.425 201.148V444.623C366.425 449.439 368.336 454.057 371.737 457.462C375.138 460.868 379.751 462.781 384.561 462.781Z" fill="#E6E6E6"/>
<path d="M539.191 232.667H429.242C427.288 232.667 425.414 231.89 424.033 230.506C422.651 229.123 421.875 227.247 421.875 225.29C421.875 223.334 422.651 221.458 424.033 220.075C425.414 218.691 427.288 217.914 429.242 217.914H539.191C541.145 217.914 543.019 218.691 544.401 220.075C545.782 221.458 546.558 223.334 546.558 225.29C546.558 227.247 545.782 229.123 544.401 230.506C543.019 231.89 541.145 232.667 539.191 232.667V232.667Z" fill="white"/>
<path d="M539.191 392.678H429.242C427.288 392.678 425.414 391.901 424.033 390.517C422.651 389.134 421.875 387.258 421.875 385.301C421.875 383.345 422.651 381.469 424.033 380.086C425.414 378.702 427.288 377.925 429.242 377.925H539.191C541.145 377.925 543.019 378.702 544.401 380.086C545.782 381.469 546.558 383.345 546.558 385.301C546.558 387.258 545.782 389.134 544.401 390.517C543.019 391.901 541.145 392.678 539.191 392.678V392.678Z" fill="white"/>
<path d="M539.191 427.858H429.242C427.288 427.858 425.414 427.08 424.033 425.697C422.651 424.314 421.875 422.437 421.875 420.481C421.875 418.525 422.651 416.649 424.033 415.265C425.414 413.882 427.288 413.105 429.242 413.105H539.191C541.145 413.105 543.019 413.882 544.401 415.265C545.782 416.649 546.558 418.525 546.558 420.481C546.558 422.437 545.782 424.314 544.401 425.697C543.019 427.08 541.145 427.858 539.191 427.858V427.858Z" fill="white"/>
<path d="M484.783 341.043C509.198 341.043 528.989 321.228 528.989 296.785C528.989 272.342 509.198 252.526 484.783 252.526C460.369 252.526 440.577 272.342 440.577 296.785C440.577 321.228 460.369 341.043 484.783 341.043Z" fill="white"/>
<path d="M769.158 256.229L749.847 260.307C749.677 260.343 749.517 260.417 749.381 260.525C749.244 260.632 749.134 260.77 749.058 260.927C748.983 261.084 748.945 261.256 748.947 261.43C748.949 261.604 748.991 261.776 749.07 261.931L750.869 265.48L663.54 309.86C663.407 309.927 663.289 310.02 663.192 310.134C663.096 310.247 663.022 310.378 662.976 310.52C662.93 310.661 662.912 310.811 662.923 310.959C662.935 311.108 662.975 311.253 663.043 311.385C663.11 311.518 663.203 311.637 663.316 311.734C663.429 311.831 663.56 311.904 663.701 311.95C663.843 311.997 663.992 312.015 664.14 312.003C664.289 311.992 664.434 311.951 664.566 311.884L751.895 267.504L753.695 271.053C753.773 271.208 753.887 271.343 754.026 271.448C754.165 271.552 754.326 271.623 754.497 271.655C754.668 271.687 754.844 271.679 755.011 271.632C755.179 271.585 755.333 271.5 755.462 271.384L770.149 258.184C770.335 258.017 770.46 257.793 770.506 257.548C770.552 257.302 770.516 257.049 770.403 256.826C770.29 256.603 770.106 256.424 769.881 256.316C769.656 256.208 769.402 256.177 769.158 256.229Z" fill="#E6E6E6"/>
<path d="M769.158 366.542L749.847 362.464C749.677 362.428 749.517 362.354 749.381 362.246C749.244 362.138 749.134 362.001 749.058 361.844C748.983 361.687 748.945 361.515 748.947 361.341C748.949 361.167 748.991 360.995 749.07 360.84L750.869 357.291L663.54 312.911C663.407 312.843 663.289 312.751 663.192 312.637C663.096 312.524 663.022 312.393 662.976 312.251C662.93 312.11 662.912 311.96 662.923 311.812C662.935 311.663 662.975 311.518 663.043 311.385C663.11 311.253 663.203 311.134 663.316 311.037C663.429 310.94 663.56 310.867 663.701 310.82C663.843 310.774 663.992 310.756 664.14 310.768C664.289 310.779 664.434 310.82 664.566 310.887L751.895 355.267L753.695 351.718C753.773 351.563 753.887 351.428 754.026 351.323C754.165 351.219 754.326 351.148 754.497 351.116C754.668 351.084 754.844 351.092 755.011 351.139C755.179 351.186 755.333 351.271 755.462 351.387L770.149 364.587C770.335 364.754 770.46 364.977 770.506 365.223C770.552 365.469 770.515 365.722 770.403 365.945C770.29 366.168 770.106 366.347 769.881 366.455C769.656 366.563 769.402 366.593 769.158 366.542V366.542Z" fill="#E6E6E6"/>
<path d="M832.809 281.484C827.877 281.484 823.056 280.02 818.955 277.276C814.854 274.533 811.658 270.634 809.771 266.072C807.883 261.51 807.39 256.49 808.352 251.647C809.314 246.804 811.689 242.355 815.176 238.864C818.664 235.372 823.107 232.994 827.944 232.031C832.782 231.068 837.796 231.562 842.352 233.452C846.909 235.341 850.803 238.541 853.543 242.647C856.284 246.753 857.746 251.58 857.746 256.518C857.739 263.137 855.109 269.483 850.434 274.163C845.759 278.844 839.421 281.476 832.809 281.484V281.484ZM832.809 233.821C828.326 233.821 823.943 235.152 820.215 237.646C816.487 240.14 813.581 243.685 811.865 247.832C810.149 251.979 809.7 256.543 810.575 260.945C811.45 265.348 813.609 269.392 816.779 272.566C819.95 275.741 823.989 277.902 828.387 278.778C832.784 279.654 837.342 279.204 841.485 277.486C845.627 275.769 849.168 272.86 851.659 269.127C854.15 265.395 855.479 261.006 855.479 256.518C855.472 250.5 853.082 244.731 848.832 240.476C844.582 236.221 838.82 233.828 832.809 233.821V233.821Z" fill="#E6E6E6"/>
<path d="M832.809 391.562C827.877 391.562 823.056 390.098 818.955 387.355C814.854 384.611 811.658 380.712 809.771 376.15C807.883 371.588 807.39 366.568 808.352 361.725C809.314 356.882 811.689 352.434 815.176 348.942C818.664 345.451 823.107 343.073 827.944 342.109C832.782 341.146 837.796 341.64 842.352 343.53C846.909 345.42 850.803 348.62 853.543 352.725C856.284 356.831 857.746 361.658 857.746 366.596C857.739 373.215 855.109 379.561 850.434 384.241C845.759 388.922 839.421 391.555 832.809 391.562V391.562ZM832.809 343.899C828.326 343.899 823.943 345.23 820.215 347.724C816.487 350.218 813.581 353.763 811.865 357.91C810.149 362.058 809.7 366.621 810.575 371.024C811.45 375.427 813.609 379.471 816.779 382.645C819.95 385.819 823.989 387.981 828.387 388.856C832.784 389.732 837.342 389.283 841.485 387.565C845.627 385.847 849.168 382.938 851.659 379.205C854.15 375.473 855.479 371.085 855.479 366.596C855.472 360.578 853.082 354.81 848.832 350.555C844.582 346.3 838.82 343.906 832.809 343.899V343.899Z" fill="#E6E6E6"/>
<path d="M830.833 268.82C830.112 268.821 829.411 268.588 828.834 268.155L828.799 268.128L821.272 262.364C820.924 262.096 820.631 261.763 820.411 261.382C820.191 261.001 820.049 260.581 819.991 260.145C819.934 259.709 819.963 259.266 820.076 258.841C820.19 258.416 820.385 258.018 820.653 257.669C820.92 257.32 821.253 257.027 821.634 256.807C822.014 256.587 822.434 256.444 822.869 256.387C823.305 256.329 823.747 256.358 824.171 256.471C824.596 256.585 824.993 256.781 825.342 257.049L830.217 260.792L841.737 245.745C842.004 245.396 842.337 245.103 842.718 244.883C843.098 244.663 843.517 244.52 843.953 244.463C844.388 244.405 844.83 244.434 845.254 244.548C845.678 244.661 846.076 244.857 846.425 245.125L846.426 245.126L846.354 245.225L846.427 245.126C847.13 245.667 847.59 246.465 847.706 247.345C847.822 248.225 847.585 249.115 847.046 249.82L833.496 267.51C833.182 267.918 832.779 268.247 832.318 268.474C831.857 268.7 831.349 268.817 830.836 268.816L830.833 268.82Z" fill="#E6E6E6"/>
<path d="M821.989 377.429C821.831 377.271 821.706 377.083 821.62 376.877C821.535 376.67 821.491 376.449 821.491 376.225C821.491 376.002 821.535 375.781 821.62 375.574C821.706 375.367 821.831 375.18 821.989 375.022L841.225 355.763C841.544 355.444 841.976 355.265 842.427 355.265C842.878 355.265 843.31 355.445 843.629 355.764C843.947 356.083 844.127 356.516 844.127 356.967C844.127 357.418 843.948 357.851 843.629 358.17L824.393 377.429C824.236 377.587 824.048 377.713 823.842 377.798C823.636 377.884 823.414 377.928 823.191 377.928C822.968 377.928 822.747 377.884 822.541 377.798C822.334 377.713 822.147 377.587 821.989 377.429Z" fill="#E6E6E6"/>
<path d="M842.496 377.429C842.654 377.271 842.779 377.083 842.865 376.877C842.95 376.67 842.994 376.449 842.994 376.225C842.994 376.002 842.95 375.781 842.865 375.574C842.779 375.367 842.654 375.18 842.496 375.022L823.26 355.763C822.941 355.444 822.509 355.265 822.058 355.265C821.607 355.265 821.175 355.445 820.856 355.764C820.537 356.083 820.358 356.516 820.358 356.967C820.358 357.418 820.537 357.851 820.855 358.17L840.091 377.429C840.249 377.587 840.437 377.713 840.643 377.798C840.849 377.884 841.07 377.928 841.294 377.928C841.517 377.928 841.738 377.884 841.944 377.798C842.151 377.713 842.338 377.587 842.496 377.429V377.429Z" fill="#E6E6E6"/>
<path d="M875.868 312.298C875.794 312.298 875.721 312.293 875.648 312.282C875.452 312.254 875.263 312.187 875.093 312.086C874.923 311.984 874.775 311.85 874.657 311.691L865.391 299.251C865.352 299.198 865.299 299.157 865.239 299.131C865.179 299.105 865.113 299.095 865.048 299.103C864.982 299.111 864.92 299.135 864.868 299.175C864.815 299.214 864.774 299.266 864.748 299.327L859.997 310.456C859.873 310.745 859.662 310.989 859.393 311.152C859.124 311.316 858.811 311.391 858.498 311.367C858.184 311.343 857.885 311.222 857.644 311.02C857.403 310.818 857.231 310.545 857.152 310.24L847.671 273.5C847.596 273.21 847.61 272.904 847.709 272.621C847.808 272.339 847.99 272.092 848.23 271.913C848.47 271.734 848.757 271.631 849.056 271.616C849.355 271.601 849.652 271.676 849.908 271.831L882.372 291.412C882.641 291.574 882.853 291.817 882.978 292.106C883.102 292.396 883.134 292.717 883.067 293.024C883 293.332 882.839 293.611 882.605 293.823C882.372 294.034 882.079 294.167 881.766 294.203L869.761 295.585C869.696 295.593 869.634 295.618 869.581 295.657C869.528 295.696 869.487 295.748 869.461 295.809C869.435 295.869 869.425 295.935 869.433 296C869.44 296.066 869.465 296.128 869.504 296.181L878.77 308.62C879.008 308.941 879.11 309.344 879.052 309.739C878.995 310.135 878.783 310.492 878.463 310.732L876.766 311.998C876.507 312.193 876.192 312.298 875.868 312.298V312.298Z" fill="#34D399"/>
<path d="M928.589 339.36H887.783C884.777 339.36 881.894 338.165 879.768 336.036C877.643 333.908 876.448 331.022 876.448 328.012C876.448 325.002 877.643 322.116 879.768 319.987C881.894 317.859 884.777 316.664 887.783 316.664H928.589C931.595 316.664 934.478 317.859 936.604 319.987C938.73 322.116 939.924 325.002 939.924 328.012C939.924 331.022 938.73 333.908 936.604 336.036C934.478 338.165 931.595 339.36 928.589 339.36V339.36Z" fill="#34D399"/>
<path d="M434.071 260.931L432.374 259.664C432.054 259.425 431.842 259.068 431.784 258.672C431.726 258.276 431.828 257.874 432.066 257.553L441.332 245.113C441.371 245.061 441.396 244.998 441.403 244.933C441.411 244.868 441.401 244.802 441.375 244.741C441.349 244.681 441.308 244.629 441.255 244.589C441.202 244.55 441.14 244.526 441.075 244.518L429.07 243.136C428.758 243.1 428.464 242.967 428.231 242.755C427.998 242.544 427.836 242.265 427.77 241.957C427.703 241.649 427.734 241.328 427.859 241.039C427.983 240.75 428.195 240.507 428.465 240.344L460.928 220.763C461.184 220.608 461.481 220.534 461.78 220.548C462.079 220.563 462.367 220.667 462.607 220.846C462.847 221.025 463.028 221.271 463.127 221.554C463.227 221.837 463.24 222.143 463.165 222.433L453.684 259.173C453.605 259.478 453.433 259.75 453.192 259.953C452.951 260.155 452.652 260.276 452.339 260.3C452.025 260.324 451.712 260.249 451.443 260.085C451.174 259.922 450.963 259.678 450.839 259.388L446.088 248.259C446.062 248.199 446.021 248.147 445.968 248.107C445.916 248.068 445.854 248.043 445.789 248.036C445.723 248.028 445.657 248.037 445.597 248.063C445.537 248.089 445.484 248.131 445.445 248.184L436.179 260.623C436.061 260.783 435.913 260.917 435.743 261.018C435.573 261.12 435.385 261.187 435.189 261.215C435.116 261.225 435.042 261.231 434.968 261.231C434.645 261.231 434.33 261.125 434.071 260.931V260.931Z" fill="#3F3D56"/>
<path d="M370.912 276.944C370.916 273.936 372.111 271.051 374.236 268.924C376.361 266.796 379.242 265.6 382.247 265.596H423.053C426.059 265.596 428.942 266.792 431.068 268.92C433.193 271.048 434.388 273.935 434.388 276.944C434.388 279.954 433.193 282.841 431.068 284.969C428.942 287.097 426.059 288.293 423.053 288.293H382.247C379.242 288.289 376.361 287.093 374.236 284.965C372.111 282.838 370.916 279.953 370.912 276.944V276.944Z" fill="#3F3D56"/>
<path d="M975.911 482.656C977.139 481.528 978.106 480.145 978.742 478.603C979.378 477.061 979.669 475.398 979.595 473.732C979.52 472.065 979.081 470.435 978.309 468.957C977.537 467.478 976.45 466.187 975.126 465.175L987.798 426.658L967.483 432.173L958.564 467.904C957.012 470.244 956.372 473.073 956.765 475.854C957.157 478.635 958.555 481.175 960.693 482.994C962.831 484.812 965.561 485.782 968.366 485.72C971.171 485.657 973.855 484.567 975.911 482.656V482.656Z" fill="#A0616A"/>
<path d="M1097.76 480.386C1096.54 479.259 1095.57 477.875 1094.93 476.333C1094.3 474.792 1094.01 473.129 1094.08 471.462C1094.15 469.796 1094.59 468.166 1095.37 466.687C1096.14 465.209 1097.22 463.918 1098.55 462.905L1085.88 424.388L1106.19 429.903L1115.11 465.634C1116.66 467.975 1117.3 470.803 1116.91 473.584C1116.52 476.366 1115.12 478.906 1112.98 480.724C1110.84 482.543 1108.11 483.512 1105.31 483.45C1102.5 483.388 1099.82 482.298 1097.76 480.386V480.386Z" fill="#A0616A"/>
<path d="M1038.22 287.979C1053.6 287.979 1066.06 275.5 1066.06 260.107C1066.06 244.713 1053.6 232.234 1038.22 232.234C1022.85 232.234 1010.38 244.713 1010.38 260.107C1010.38 275.5 1022.85 287.979 1038.22 287.979Z" fill="#A0616A"/>
<path d="M1011.94 659.193H998.045L991.434 605.529H1011.94L1011.94 659.193Z" fill="#A0616A"/>
<path d="M1015.49 672.68L970.678 672.678V672.11C970.678 669.817 971.129 667.547 972.005 665.428C972.882 663.31 974.166 661.385 975.786 659.764C977.405 658.142 979.328 656.856 981.444 655.979C983.56 655.101 985.828 654.65 988.118 654.65H988.119L1015.49 654.651L1015.49 672.68Z" fill="#2F2E41"/>
<path d="M1059.55 659.193H1045.65L1039.04 605.529H1059.55L1059.55 659.193Z" fill="#A0616A"/>
<path d="M1063.09 672.68L1018.28 672.678V672.11C1018.28 669.817 1018.74 667.547 1019.61 665.428C1020.49 663.31 1021.77 661.385 1023.39 659.764C1025.01 658.142 1026.93 656.856 1029.05 655.979C1031.17 655.101 1033.43 654.65 1035.72 654.65H1035.73L1063.09 654.651L1063.09 672.68Z" fill="#2F2E41"/>
<path d="M1011.71 643.508L995.391 643.462C994.692 643.552 993.981 643.493 993.305 643.289C992.63 643.086 992.005 642.743 991.47 642.282C990.924 641.815 990.483 641.238 990.174 640.589C989.866 639.94 989.698 639.233 989.681 638.514L991.562 457.649L1066.89 456.896L1062.52 637.181C1062.49 638.516 1061.95 639.788 1060.99 640.72C1060.04 641.653 1058.75 642.172 1057.42 642.164H1040.59C1039.27 642.168 1038 641.658 1037.05 640.74C1036.09 639.823 1035.54 638.571 1035.49 637.249L1031.42 529.044C1031.42 528.971 1031.4 528.898 1031.38 528.831C1031.35 528.763 1031.31 528.702 1031.26 528.651C1031.2 528.6 1031.14 528.56 1031.07 528.534C1031.01 528.507 1030.93 528.495 1030.86 528.498C1030.71 528.493 1030.57 528.546 1030.46 528.645C1030.36 528.744 1030.29 528.881 1030.29 529.027L1016.11 638.826C1016.02 639.993 1015.54 641.093 1014.74 641.945C1013.94 642.797 1012.87 643.349 1011.71 643.508Z" fill="#2F2E41"/>
<path d="M1025.77 469.971C1014.64 469.971 1002.88 467.98 992.259 462.16C991.465 461.726 990.799 461.089 990.329 460.315C989.859 459.54 989.601 458.655 989.582 457.749L988.097 375.204L986.008 357.541C984.755 347.034 986.625 336.391 991.382 326.943C996.14 317.494 1003.57 309.66 1012.76 304.42L1013.72 303.869L1016.44 297.518C1016.66 296.993 1017.04 296.548 1017.52 296.241C1018 295.934 1018.56 295.78 1019.13 295.8L1055.67 296.845C1056.25 296.863 1056.81 297.059 1057.28 297.406C1057.75 297.752 1058.09 298.233 1058.28 298.785L1059.98 303.883C1069.36 309.274 1076.88 317.385 1081.57 327.145C1086.25 336.906 1087.87 347.859 1086.2 358.558L1071.22 457.82C1071.09 458.713 1070.72 459.555 1070.15 460.259C1069.59 460.963 1068.85 461.504 1068 461.826C1061.38 464.348 1044.47 469.971 1025.77 469.971Z" fill="#3F3D56"/>
<path d="M1097.19 458.778C1096.61 458.777 1096.06 458.603 1095.58 458.28C1095.11 457.956 1094.75 457.497 1094.54 456.963L1075.98 408.876L1060.8 333.958C1060.23 331.132 1060.5 328.199 1061.57 325.522C1062.64 322.845 1064.47 320.541 1066.84 318.895V318.895C1068.88 317.472 1071.25 316.589 1073.73 316.33C1076.2 316.07 1078.71 316.441 1081 317.409C1083.29 318.377 1085.31 319.91 1086.85 321.866C1088.39 323.822 1089.41 326.136 1089.82 328.595L1094.07 354.106L1115.13 451.767C1115.29 452.493 1115.15 453.25 1114.75 453.878C1114.36 454.505 1113.73 454.953 1113.01 455.126L1097.83 458.702C1097.62 458.752 1097.4 458.778 1097.19 458.778V458.778Z" fill="#3F3D56"/>
<path d="M977.622 458.778C977.405 458.778 977.188 458.752 976.977 458.702L961.797 455.126C961.076 454.953 960.451 454.505 960.055 453.878C959.658 453.25 959.522 452.493 959.676 451.767L980.742 354.079L984.984 328.595C985.394 326.136 986.417 323.822 987.96 321.866C989.503 319.91 991.515 318.377 993.809 317.409C996.102 316.441 998.604 316.07 1001.08 316.33C1003.55 316.589 1005.92 317.472 1007.97 318.895V318.895C1010.33 320.541 1012.17 322.845 1013.24 325.522C1014.31 328.199 1014.58 331.132 1014 333.958L998.854 408.784L980.27 456.965C980.062 457.498 979.697 457.957 979.225 458.28C978.753 458.603 978.194 458.777 977.622 458.778V458.778Z" fill="#3F3D56"/>
<path d="M1059.89 286.696C1057.31 288.181 1047.12 289.166 1046.4 286.278L1046.38 286.215C1045.88 284.1 1046.3 281.891 1046.44 279.72C1046.59 277.55 1046.37 275.166 1044.9 273.57C1042.15 270.596 1037.25 272.173 1033.27 271.42C1030.94 270.9 1028.88 269.546 1027.47 267.613C1026.07 265.681 1025.41 263.301 1025.63 260.92C1025.69 260.469 1025.78 260.017 1025.88 259.566C1026.12 258.422 1026.11 257.237 1025.82 256.102C1025.53 254.967 1024.99 253.914 1024.23 253.025C1023.47 252.137 1022.51 251.437 1021.44 250.98C1020.36 250.524 1019.19 250.324 1018.02 250.395C1014 250.625 1009.66 251.845 1006.33 248.863C1003.76 246.557 1003.13 240.553 1004.26 237.286C1006.16 231.795 1018.33 228.921 1023.65 227.341C1030.22 225.44 1037.13 225.029 1043.88 226.138C1050.64 227.247 1057.05 229.848 1062.67 233.752C1066.03 236.121 1069.17 239.097 1070.6 242.951C1072.03 246.805 1071.34 251.667 1068.11 254.211C1070.61 256.861 1072.37 260.123 1073.22 263.67C1074.06 267.216 1073.96 270.923 1072.92 274.418C1071.33 279.558 1063.73 284.486 1059.89 286.696Z" fill="#2F2E41"/>
<path d="M284.729 441.022C283.071 440.855 281.47 440.327 280.038 439.473C278.606 438.619 277.379 437.462 276.442 436.082C275.506 434.702 274.883 433.134 274.617 431.487C274.352 429.84 274.45 428.155 274.905 426.55L241.723 403.293L261.293 395.534L289.803 418.809C292.445 419.753 294.65 421.636 295.998 424.098C297.347 426.561 297.747 429.434 297.121 432.172C296.496 434.91 294.889 437.323 292.605 438.955C290.321 440.586 287.519 441.321 284.729 441.022Z" fill="#FFB8B8"/>
<path d="M266.71 423.344L236.66 405.895C233.64 404.186 231.009 401.867 228.934 399.086C226.858 396.304 225.383 393.121 224.602 389.738C223.898 386.537 223.856 383.225 224.479 380.007C225.102 376.79 226.377 373.734 228.225 371.028L253.101 334.293C254.861 331.694 257.536 329.856 260.592 329.149C263.647 328.442 266.857 328.916 269.578 330.478C272.298 332.039 274.329 334.573 275.263 337.57C276.197 340.567 275.965 343.807 274.614 346.641L255.189 387.387L274.867 404.734C275.547 405.335 276.056 406.106 276.34 406.969C276.624 407.832 276.673 408.755 276.482 409.643L274.255 420C274.09 420.789 273.738 421.528 273.23 422.153C272.721 422.778 272.071 423.273 271.333 423.595C270.598 423.926 269.795 424.075 268.991 424.031C268.186 423.987 267.404 423.752 266.709 423.344L266.71 423.344Z" fill="#3F3D56"/>
<path d="M402.868 341.714C402.364 343.304 401.518 344.764 400.389 345.991C399.26 347.219 397.876 348.183 396.335 348.817C394.794 349.451 393.132 349.739 391.468 349.66C389.803 349.582 388.176 349.139 386.701 348.363L357.144 376.091L353.585 355.321L382.199 332.174C383.665 329.779 385.958 328.007 388.643 327.192C391.328 326.377 394.218 326.576 396.766 327.752C399.314 328.928 401.342 330.999 402.467 333.572C403.591 336.146 403.734 339.042 402.868 341.714V341.714Z" fill="#FFB8B8"/>
<path d="M281.808 305.315C297.183 305.315 309.647 292.836 309.647 277.442C309.647 262.048 297.183 249.569 281.808 249.569C266.432 249.569 253.968 262.048 253.968 277.442C253.968 292.836 266.432 305.315 281.808 305.315Z" fill="#FFB8B8"/>
<path d="M363.778 658.741L377.097 654.774L368.15 601.451L348.491 607.306L363.778 658.741Z" fill="#FFB8B8"/>
<path d="M359.087 655.4L385.317 647.586L385.318 647.585C387.513 646.931 389.816 646.717 392.094 646.954C394.372 647.191 396.581 647.875 398.595 648.966C400.609 650.058 402.388 651.536 403.832 653.317C405.275 655.097 406.354 657.144 407.007 659.342L407.169 659.886L364.222 672.68L359.087 655.4Z" fill="#2F2E41"/>
<path d="M217.855 658.058H231.75L238.362 604.394H224.653L217.855 658.058Z" fill="#FFB8B8"/>
<path d="M214.31 653.516L241.676 653.515H241.677C243.968 653.515 246.236 653.966 248.352 654.844C250.468 655.721 252.39 657.008 254.01 658.629C255.629 660.25 256.914 662.175 257.79 664.294C258.667 666.412 259.118 668.683 259.118 670.976V671.543L214.31 671.545L214.31 653.516Z" fill="#2F2E41"/>
<path d="M353.836 639.534L301.711 489.365C301.601 489.035 301.391 488.748 301.111 488.543C300.83 488.338 300.492 488.226 300.144 488.223C299.796 488.203 299.45 488.297 299.159 488.49C298.867 488.682 298.646 488.964 298.527 489.292L238.464 639.621C238.073 640.61 237.382 641.451 236.487 642.026C235.593 642.6 234.542 642.88 233.481 642.825L217.804 642.063C217.049 642.027 216.312 641.822 215.645 641.465C214.979 641.109 214.4 640.608 213.951 639.999C213.501 639.391 213.192 638.69 213.047 637.948C212.901 637.205 212.922 636.44 213.108 635.706L269.922 411.528L326.921 406.871L327.294 407.408C327.602 407.854 358.1 452.805 358.081 530.412L377.623 636.934C377.758 637.671 377.73 638.428 377.54 639.152C377.351 639.877 377.004 640.55 376.526 641.126C376.047 641.701 375.448 642.164 374.771 642.482C374.093 642.799 373.355 642.964 372.607 642.964H358.654C357.595 642.964 356.562 642.633 355.698 642.019C354.835 641.404 354.184 640.536 353.836 639.534Z" fill="#2F2E41"/>
<path d="M249.605 360.68C247.599 354.931 247.104 348.763 248.167 342.767C249.23 336.771 251.815 331.15 255.674 326.443C259.443 321.763 264.351 318.132 269.926 315.898C275.501 313.665 281.555 312.903 287.509 313.688C287.981 313.751 288.451 313.815 288.917 313.879C296.495 314.904 303.54 318.354 308.998 323.716C314.457 329.077 318.038 336.063 319.206 343.629L329.851 411.411L269.163 415.997L268.728 416.029L249.605 360.68Z" fill="#3F3D56"/>
<path d="M338.163 388.184C334.842 388.07 331.581 387.266 328.587 385.822C325.594 384.379 322.932 382.328 320.773 379.799L292.066 346.481C289.838 343.983 288.673 340.714 288.818 337.368C288.908 335.62 289.368 333.91 290.17 332.354C290.971 330.797 292.094 329.429 293.465 328.342C295.727 326.533 298.548 325.571 301.442 325.62C304.337 325.669 307.124 326.726 309.324 328.61L343.559 357.986L364.622 343.316C365.377 342.789 366.262 342.477 367.18 342.413C368.099 342.349 369.017 342.536 369.838 342.953L379.919 348.062C380.64 348.427 381.263 348.958 381.738 349.612C382.214 350.265 382.527 351.023 382.653 351.821C382.779 352.62 382.714 353.437 382.463 354.206C382.212 354.974 381.782 355.672 381.209 356.241L356.145 381.165C353.911 383.401 351.258 385.174 348.338 386.381C345.418 387.589 342.289 388.208 339.129 388.202C338.808 388.202 338.486 388.196 338.163 388.184Z" fill="#3F3D56"/>
<path d="M302.978 270.481C306.444 271.827 310.097 272.632 313.808 272.867C317.54 272.914 321.507 271.619 323.55 268.773C324.333 267.53 324.839 266.132 325.033 264.675C325.226 263.218 325.103 261.736 324.671 260.331C323.897 257.483 322.506 254.841 320.595 252.593C318.684 250.346 316.301 248.548 313.616 247.329C310.795 246.048 307.749 245.337 304.653 245.237C301.557 245.138 298.472 245.651 295.574 246.748C293.479 240.373 285.59 236.903 278.288 236.707C263.372 236.306 250.034 246.489 243.553 258.733C237.073 270.978 236.126 284.974 235.723 298.562C235.625 301.876 235.583 305.332 237.151 308.324C239.486 312.779 244.792 315.178 249.793 317.08C262.906 322.062 276.435 325.869 290.221 328.458C283.602 324.222 281.502 315.105 285.695 308.804C287.746 305.721 291.114 303.154 291.659 299.583C292.313 295.301 288.664 291.557 287.314 287.413C286.632 285.169 286.601 282.778 287.225 280.517C287.849 278.257 289.102 276.22 290.838 274.646C292.728 273.003 294.987 271.842 297.423 271.264C299.858 270.686 302.398 270.707 304.823 271.326" fill="#2F2E41"/>
<path d="M438.239 673H157.133C156.833 673 156.545 672.88 156.332 672.667C156.119 672.455 156 672.166 156 671.865C156 671.564 156.119 671.275 156.332 671.063C156.545 670.85 156.833 670.73 157.133 670.73H438.239C438.54 670.73 438.828 670.85 439.04 671.063C439.253 671.275 439.372 671.564 439.372 671.865C439.372 672.166 439.253 672.455 439.04 672.667C438.828 672.88 438.54 673 438.239 673Z" fill="#CCCCCC"/>
<path d="M1122.87 673H923.372C923.072 673 922.783 672.88 922.571 672.667C922.358 672.455 922.239 672.166 922.239 671.865C922.239 671.564 922.358 671.275 922.571 671.063C922.783 670.85 923.072 670.73 923.372 670.73H1122.87C1123.17 670.73 1123.46 670.85 1123.67 671.063C1123.88 671.275 1124 671.564 1124 671.865C1124 672.166 1123.88 672.455 1123.67 672.667C1123.46 672.88 1123.17 673 1122.87 673Z" fill="#CCCCCC"/>
</g>
</g>
<defs>
<clipPath id="clip0">
<rect width="1280" height="720" fill="white"/>
</clipPath>
<clipPath id="clip1">
<rect width="968" height="610" fill="white" transform="translate(156 63)"/>
</clipPath>
</defs>
</svg>
