<svg width="400" height="400" viewBox="0 0 400 400" fill="none" xmlns="http://www.w3.org/2000/svg">
<path fill-rule="evenodd" clip-rule="evenodd" d="M233.332 51.2444L200 32L54.5078 116V284L134.648 330.269L168.028 310.997L95.992 269.352L88 264.731V255.5V144.5V135.269L95.992 130.648L191.992 75.1482L198.014 71.667L198 71.6436L233.332 51.2444ZM265.332 69.7196L231.953 88.9913L304.008 130.648L312 135.269V144.5V200V255.5V264.731L304.008 269.352L208.008 324.852L206.286 325.847L206.292 325.856L166.648 348.744L200 368L345.492 284V116L265.332 69.7196ZM120 153.731V246.269L200 292.519L280 246.269V200V153.731L200 107.481L120 153.731ZM200 152L241.569 176V224L200 248L158.431 224V176L200 152Z" fill="#34D399"/>
</svg>
