<svg width="400" height="400" viewBox="0 0 400 400" fill="none" xmlns="http://www.w3.org/2000/svg">
<path fill-rule="evenodd" clip-rule="evenodd" d="M345.492 154.489V116L200 32L54.5078 116L54.5078 208.538L87.8873 227.81L87.9356 144.602L87.941 135.371L95.9356 130.755L192.064 75.2551L200.059 70.6394L208.056 75.2504L304.121 130.639L310.146 134.113L310.16 134.09L345.492 154.489ZM345.492 191.439L312.113 172.167L312.064 255.398L312.059 264.629L304.064 269.245L256 296.995L207.936 324.745L199.941 329.36L191.944 324.749L95.8792 269.361L94.1564 268.368L94.1511 268.377L54.5078 245.489V284L200 368L345.492 284L345.492 191.439ZM200.07 107.584L119.93 153.852L119.877 246.259L199.93 292.416L240 269.282L280.07 246.148L280.123 153.741L200.07 107.584ZM241.569 176V224L200 248L158.431 224V176L200 152L241.569 176Z" fill="#60A5FA"/>
</svg>
