<svg width="400" height="400" viewBox="0 0 400 400" fill="none" xmlns="http://www.w3.org/2000/svg">
<path fill-rule="evenodd" clip-rule="evenodd" d="M345.492 116L200 32L120 78.188V116.769L191.992 75.1482L200 70.5186L208.008 75.1482L304.008 130.648L312 135.269V144.5V200V255.5V264V264.731V303.337L345.492 284V116ZM280 321.812V283.231L208.008 324.852L200 329.481L191.992 324.852L95.992 269.352L88 264.731V255.5V144.5V135.269V96.6632L54.5077 116V284L200 368L280 321.812ZM120 153.731V246.269L200 292.519L280 246.269V200V153.731L200 107.481L120 153.731ZM200 152L241.569 176V224L200 248L158.431 224V176L200 152Z" fill="#F87171"/>
</svg>
